<svg xmlns="http://www.w3.org/2000/svg" viewBox="0 0 23.28 23.28"><defs><style>.cls-1{fill:#313c52;}</style></defs><g id="Layer_2" data-name="Layer 2"><g id="Footer"><path class="cls-1" d="M11.64,2.1c3.11,0,3.48,0,4.71.07a6.4,6.4,0,0,1,2.16.4,3.61,3.61,0,0,1,1.34.87,3.57,3.57,0,0,1,.87,1.34,6.34,6.34,0,0,1,.4,2.16c.05,1.22.07,1.59.07,4.7s0,3.48-.07,4.71a6.4,6.4,0,0,1-.4,2.16,3.84,3.84,0,0,1-2.21,2.21,6.4,6.4,0,0,1-2.16.4c-1.23.05-1.6.07-4.71.07s-3.48,0-4.7-.07a6.34,6.34,0,0,1-2.16-.4,3.57,3.57,0,0,1-1.34-.87,3.61,3.61,0,0,1-.87-1.34,6.4,6.4,0,0,1-.4-2.16c-.06-1.23-.07-1.6-.07-4.71s0-3.48.07-4.7a6.34,6.34,0,0,1,.4-2.16,3.46,3.46,0,0,1,.87-1.34,3.46,3.46,0,0,1,1.34-.87,6.34,6.34,0,0,1,2.16-.4c1.22-.06,1.59-.07,4.7-.07m0-2.1C8.48,0,8.08,0,6.84.07A8.53,8.53,0,0,0,4,.61,5.89,5.89,0,0,0,.61,4,8.53,8.53,0,0,0,.07,6.84C0,8.08,0,8.48,0,11.64s0,3.56.07,4.8a8.6,8.6,0,0,0,.54,2.83A5.9,5.9,0,0,0,2,21.33,5.71,5.71,0,0,0,4,22.67a8.28,8.28,0,0,0,2.82.54c1.24.06,1.64.07,4.8.07s3.56,0,4.8-.07a8.35,8.35,0,0,0,2.83-.54,5.93,5.93,0,0,0,3.4-3.4,8.35,8.35,0,0,0,.54-2.83c.06-1.24.07-1.64.07-4.8s0-3.56-.07-4.8A8.28,8.28,0,0,0,22.67,4,5.71,5.71,0,0,0,21.33,2,5.9,5.9,0,0,0,19.27.61,8.6,8.6,0,0,0,16.44.07C15.2,0,14.8,0,11.64,0"/><path class="cls-1" d="M11.64,5.66a6,6,0,1,0,6,6,6,6,0,0,0-6-6m0,9.86a3.88,3.88,0,1,1,3.88-3.88,3.88,3.88,0,0,1-3.88,3.88"/><path class="cls-1" d="M19.25,5.43A1.4,1.4,0,1,1,17.86,4a1.39,1.39,0,0,1,1.39,1.4"/></g></g></svg>